<?xml version="1.0" encoding="UTF-8" standalone="no"?>
<!-- Created with Inkscape (http://www.inkscape.org/) -->

<svg
   width="800"
   height="200"
   viewBox="0 0 211.66666 52.917005"
   version="1.1"
   id="svg5"
   xml:space="preserve"
   inkscape:version="1.2.2 (b0a8486541, 2022-12-01)"
   sodipodi:docname="example.svg"
   xmlns:inkscape="http://www.inkscape.org/namespaces/inkscape"
   xmlns:sodipodi="http://sodipodi.sourceforge.net/DTD/sodipodi-0.dtd"
   xmlns="http://www.w3.org/2000/svg"
   xmlns:svg="http://www.w3.org/2000/svg"><sodipodi:namedview
     id="namedview7"
     pagecolor="#ffffff"
     bordercolor="#666666"
     borderopacity="1.0"
     inkscape:showpageshadow="2"
     inkscape:pageopacity="0.0"
     inkscape:pagecheckerboard="0"
     inkscape:deskcolor="#d1d1d1"
     inkscape:document-units="mm"
     showgrid="false"
     inkscape:zoom="1.4142136"
     inkscape:cx="361.68512"
     inkscape:cy="178.19091"
     inkscape:window-width="1916"
     inkscape:window-height="1047"
     inkscape:window-x="0"
     inkscape:window-y="29"
     inkscape:window-maximized="1"
     inkscape:current-layer="layer1" /><defs
     id="defs2"><rect
       x="243.37692"
       y="48.06329"
       width="206.84746"
       height="46.603058"
       id="rect1877" /><marker
       style="overflow:visible"
       id="marker1507"
       refX="0"
       refY="0"
       orient="auto-start-reverse"
       inkscape:stockid="Arrow1L"
       markerWidth="8.75"
       markerHeight="5"
       viewBox="0 0 8.75 5"
       inkscape:isstock="true"
       inkscape:collect="always"
       preserveAspectRatio="xMidYMid"><path
         style="fill:context-stroke;fill-rule:evenodd;stroke:none"
         d="M 0,0 5,-5 -12.5,0 5,5 Z"
         id="path1505"
         transform="scale(-0.5)" /></marker><marker
       style="overflow:visible"
       id="Arrow1L"
       refX="0"
       refY="0"
       orient="auto-start-reverse"
       inkscape:stockid="Arrow1L"
       markerWidth="8.75"
       markerHeight="5"
       viewBox="0 0 8.75 5"
       inkscape:isstock="true"
       inkscape:collect="always"
       preserveAspectRatio="xMidYMid"><path
         style="fill:context-stroke;fill-rule:evenodd;stroke:none"
         d="M 0,0 5,-5 -12.5,0 5,5 Z"
         id="arrow1L"
         transform="scale(-0.5)" /></marker><rect
       x="501.20755"
       y="188.29828"
       width="255.08585"
       height="118.70959"
       id="rect1051" /><rect
       x="33.315338"
       y="196.34488"
       width="213.41333"
       height="125.51151"
       id="rect1045" /></defs><g
     inkscape:label="Слой 1"
     inkscape:groupmode="layer"
     id="layer1"><path
       id="path373"
       style="fill:#000000;stroke-width:0.116193"
       d="m 26.726392,35.212572 c -0.3101,-0.06016 -0.72852,-0.559027 -0.72852,-0.868578 0,-0.121859 0.62744,-1.103944 1.39432,-2.182418 l 1.39432,-1.960869 V 24.40471 c 0,-4.353073 0.0347,-5.830709 0.13943,-5.935429 0.20195,-0.20196 18.92343,-0.20196 19.12539,0 0.10472,0.104726 0.13943,1.584063 0.13943,5.943127 v 5.803697 l 1.45242,1.94073 c 0.79883,1.067402 1.45241,2.050162 1.45241,2.183915 0,0.133747 -0.12618,0.389888 -0.2804,0.569192 l -0.28041,0.326009 -11.77463,0.01344 c -6.47605,0.0074 -11.89124,-0.0092 -12.03376,-0.03685 z m 23.65578,-0.797827 c 0.0414,-0.03667 -0.49017,-0.782561 -1.95902,-2.74915 l -0.75526,-1.011179 -9.17925,-0.0018 -9.17927,-0.0018 -1.27732,1.79628 c -0.70253,0.987949 -1.29503,1.84939 -1.31667,1.91431 -0.0264,0.07925 3.77138,0.127758 11.56042,0.147638 10.63742,0.02714 11.98102,0.01669 12.10637,-0.09443 z m -14.81368,-0.919686 c -0.0372,-0.09696 -0.0372,-0.255624 0,-0.352582 0.0584,-0.152315 0.46709,-0.172067 3.00441,-0.14524 l 2.93675,0.03105 v 0.290481 0.290483 l -2.93675,0.03105 c -2.53732,0.02683 -2.94596,0.0071 -3.00441,-0.145241 z m 11.92511,-9.006974 V 19.02701 h -9.00496 -9.00498 v 5.461074 5.461079 h 9.00498 9.00496 z" /><path
       id="path367"
       style="fill:#000000;stroke-width:0.110077"
       d="m 176.9727,33.33494 v -1.25572 l -2.11662,0.01735 -2.11662,0.01735 -0.0387,1.081051 c -0.0213,0.594577 -0.0115,1.151843 0.0217,1.238363 0.0494,0.128743 0.44086,0.157313 2.15528,0.157313 h 2.09491 z m 7.94559,-2.075266 c 0.0476,-0.07504 0.0874,-0.569856 0.0883,-1.099601 l 0.002,-0.963169 h -10.12708 -10.12707 v 1.023716 c 0,0.563041 0.0471,1.070771 0.10456,1.128284 0.16987,0.169905 19.95086,0.08192 20.05956,-0.08923 z m 0.0637,-7.388747 c 0.0206,-3.312105 -0.006,-4.652817 -0.096,-4.760824 -0.10376,-0.12502 -1.78042,-0.150344 -9.95417,-0.150344 -5.40616,0 -9.90774,0.03008 -10.00351,0.06682 -0.15497,0.05947 -0.17412,0.578007 -0.17412,4.714959 0,2.556476 0.0333,4.681422 0.074,4.722096 0.0407,0.04069 4.58548,0.06132 10.09955,0.04587 l 10.02558,-0.02808 z m -15.16431,11.215086 c -0.10932,-0.131731 -0.10932,-0.198501 0,-0.33023 0.10494,-0.126442 0.39254,-0.165118 1.22793,-0.165118 h 1.0909 l -0.0311,-1.238363 -0.0311,-1.238364 -3.73563,-0.02359 c -3.6109,-0.0228 -3.7432,-0.03116 -3.96276,-0.250732 -0.22425,-0.224243 -0.22714,-0.308475 -0.22714,-6.60548 v -6.378338 l 0.2507,-0.250728 0.25071,-0.250735 10.04147,-0.02933 c 7.41353,-0.02167 10.12206,0.0042 10.34938,0.09806 0.63421,0.262442 0.62775,0.192354 0.62775,6.811088 0,6.565827 -0.005,6.628987 -0.58883,6.775397 -0.14003,0.03515 -1.86045,0.07301 -3.82317,0.08415 l -3.56857,0.02026 -0.0311,1.238362 -0.0311,1.238364 h 1.08236 c 1.15833,0 1.41996,0.09745 1.22744,0.457172 -0.10331,0.193027 -0.35794,0.203288 -5.0449,0.203288 -4.25336,0 -4.95506,-0.02284 -5.07314,-0.165115 z" /><text
       xml:space="preserve"
       transform="matrix(0.26458333,0,0,0.26458333,1.4404743,-12.576305)"
       id="text1043"
       style="font-style:normal;font-weight:normal;font-size:16px;line-height:1.25;font-family:sans-serif;text-align:center;letter-spacing:0px;word-spacing:0px;white-space:pre;shape-inside:url(#rect1045);display:inline;fill:#000000;fill-opacity:1;stroke:none"><tspan
         x="91.673828"
         y="210.50195"
         id="tspan5153">192.168.1.3
</tspan><tspan
         x="70.697266"
         y="230.50195"
         id="tspan5155">RDP on TCP 3389</tspan></text><text
       xml:space="preserve"
       transform="matrix(0.26458333,0,0,0.26458333,8.5313408,-9.4395448)"
       id="text1049"
       style="font-style:normal;font-weight:normal;font-size:16px;line-height:1.25;font-family:sans-serif;text-align:center;letter-spacing:0px;word-spacing:0px;white-space:pre;shape-inside:url(#rect1051);display:inline;fill:#000000;fill-opacity:1;stroke:none"><tspan
         x="580.40234"
         y="202.45508"
         id="tspan5157">192.168.1.2</tspan></text><path
       id="path1055"
       style="fill:#000000;stroke-width:0.13561"
       d="m 107.62193,18.317959 c -1.29127,0 -2.58207,0.06864 -2.68304,0.20619 -0.10473,0.142645 -0.13953,2.15523 -0.13953,8.084778 v 8.341608 c 0.32247,0.356814 5.27114,0.434238 5.64565,0.02119 V 26.61978 c 0,-5.937704 -0.0348,-7.952979 -0.13952,-8.09563 -0.10098,-0.137548 -1.39229,-0.206187 -2.68356,-0.206187 z m -2.12545,0.697633 h 2.12545 2.12597 v 2.985864 h -4.25142 z m 0,3.62975 h 4.25142 v 4.077271 1.769919 h -2.90421 v 0.650088 h 2.90421 v 5.287016 h -2.12597 -2.12545 v -2.04742 h 2.87631 v -0.594279 h -2.87631 v -5.065324 -0.8754 h 2.39623 v -0.556554 h -2.39623 z" /><text
       xml:space="preserve"
       style="font-style:normal;font-weight:normal;font-size:3.70417px;line-height:1.25;font-family:sans-serif;text-align:center;letter-spacing:0px;word-spacing:0px;text-anchor:middle;fill:#000000;fill-opacity:1;stroke:none;stroke-width:0.264583"
       x="107.54441"
       y="40.791729"
       id="text1173"><tspan
         sodipodi:role="line"
         id="tspan1171"
         style="font-size:3.70417px;stroke-width:0.264583"
         x="107.54441"
         y="40.791729">Firewall</tspan><tspan
         sodipodi:role="line"
         style="font-size:3.70417px;stroke-width:0.264583"
         x="107.54441"
         y="45.42194"
         id="tspan1711">DENY from 192.168.1.0/24</tspan><tspan
         sodipodi:role="line"
         style="font-size:3.70417px;stroke-width:0.264583"
         x="107.54441"
         y="50.052155"
         id="tspan1715">ALLOW to 192.168.1.0/24</tspan></text><path
       style="fill:none;stroke:#000000;stroke-width:0.5;stroke-linecap:butt;stroke-linejoin:miter;stroke-dasharray:none;stroke-opacity:1;marker-start:url(#Arrow1L);marker-end:url(#marker1507)"
       d="M 61.149069,26.784481 H 91.624582"
       id="path1238" /><path
       style="fill:none;stroke:#000000;stroke-width:0.5;stroke-linecap:butt;stroke-linejoin:miter;stroke-dasharray:none;stroke-opacity:1;marker-start:url(#Arrow1L);marker-end:url(#marker1507)"
       d="M 118.72189,26.784481 H 155.8719"
       id="path1240" /><text
       xml:space="preserve"
       transform="matrix(0.26458333,0,0,0.26458333,15.776881,-10.767403)"
       id="text1875"
       style="font-style:normal;font-weight:normal;font-size:12px;line-height:1.25;font-family:sans-serif;text-align:center;letter-spacing:0px;word-spacing:0px;white-space:pre;shape-inside:url(#rect1877);display:inline;fill:#000000;fill-opacity:1;stroke:none"><tspan
         x="267.95996"
         y="58.679688"
         id="tspan5159">Firewall block all incoming </tspan><tspan
         x="252.58496"
         y="73.679688"
         id="tspan5161">connections from local network </tspan><tspan
         x="305.16113"
         y="88.679688"
         id="tspan5163">including RDP</tspan></text></g></svg>
